<svg xmlns="http://www.w3.org/2000/svg" viewBox="0 0 17.469 17.469" fill="#e4a853">
  <path d="M5.925 4.982c-.442 0-.742.043-.898.087v2.841C5.213 7.952 5.44 7.966 5.754 7.966c1.157 0 1.871-.585 1.871-1.571C7.624 5.511 7.01 4.982 5.925 4.982z"/>
  <path d="M16.4.002H1.07C.479.002 0 .48 0 1.069v15.329c0 .59.479 1.069 1.07 1.069H16.4c.59 0 1.069-.479 1.069-1.069V1.07C17.469.48 16.99.002 16.4.002zM8.894 8.624c-.741.7-1.842 1.014-3.125 1.014-.287 0-.543-.014-.743-.043v3.442H2.869V3.541C3.54 3.428 4.482 3.342 5.811 3.342c1.341 0 2.299.256 2.94.771.617.486 1.03 1.286 1.03 2.228S9.466 8.08 8.894 8.624zM12.145 13.179c-.916 0-1.729-.198-2.258-.485l.385-1.556c.4.241 1.229.527 1.873.527.655 0 .927-.228.927-.586 0-.356-.214-.527-1.027-.799-1.442-.485-2-1.271-1.986-2.099 0-1.298 1.114-2.286 2.842-2.286.814 0 1.542.187 1.97.4l-.385 1.5c-.314-.172-.913-.399-1.514-.399-.527 0-.826.214-.826.571 0 .328.269.499 1.126.8 1.328.456 1.886 1.128 1.899 2.154C15.171 12.222 14.141 13.179 12.145 13.179z"/>
</svg>
